<svg xmlns="http://www.w3.org/2000/svg" width="882" height="846"><path d="M1039.88 943.861c221.56 56.3 440.45-95.81 476.03-202.184-160.36-37.622-176.71 188.906-476.03 202.184Zm509.46-259.5s-120.16-65.081-254.73 70.048c-64.37 64.646-177.45 127.7-306.241 125.246C854.616 877.106 724.344 790.1 696 550.636c68.838 154.094 210.14 180.112 296.429 181.847 158.591 3.189 273.561-143.6 432.731-145.231 120.39 0 124.18 97.113 124.18 97.113ZM1578 577.7s-76.43-68.456-148.06-68.456c-138.6 0-280.46 144.873-442.593 144.873S718.289 532.648 718.289 429.644s77.754-217.5 219.415-229.512c57.7-4.2 130.506 15.4 163.3 83.868 20.57 47.953 15.77 141.545-136 133 129.19-12.056 126.68-174.378-36.56-145.188C881.7 280.17 839.612 322.432 839 386c1.3 73.875 38.582 116.814 91.033 121.652 170.957 7.015 298.147-120.511 431.447-119.4C1452.7 386.391 1578 438.384 1578 577.7ZM877.5 154.228s262.525-98.434 229.255-1.592c-20.295 47.428-102.895-29.518-229.255 1.592Zm321.595-39.8c36.57 0 35.98 57.312 0 57.312-39.955 0-36.575-57.312-.005-57.312ZM983.694 312c-41.533.86-43.435 58.005 1.447 58.005 39.859.205 40.209-57.036-1.447-58.005ZM1389.2 136.716c-62.28 0-113.69 48.552-113.69 108.458 0 48.422 35.97 117.606 118.92 117.606 55.45 0 107.15-45.085 107.15-113.685 0 7.355-28.7 78.4-98.01 78.4-68.29 0-94.08-59.873-94.08-94.084 0-52.058 44.94-96.695 79.71-96.695ZM1137.72 198.8c35.4 0 34.83 54.128 0 54.128-38.66.004-35.4-54.128 0-54.128Z" transform="translate(-696 -109.969)" style="fill:#fff;fill-rule:evenodd"/></svg>