<svg xmlns="http://www.w3.org/2000/svg" width="1704" height="230"><path d="M1775.51 438.276q21.36 5.015 37.06 9.359a217.109 217.109 0 0 1 28.72 10.028 72.651 72.651 0 0 1 13.85 7.521 42.148 42.148 0 0 1 11.02 11.2 55.964 55.964 0 0 1 7.18 16.045q2.67 9.361 2.67 22.73 0 16.046-6.68 28.413a63.621 63.621 0 0 1-18.03 20.891 82.978 82.978 0 0 1-26.71 13.037 114.368 114.368 0 0 1-32.39 4.512q-48.42 0-72.79-18.718T1693.7 507.8h44.74q.33 17.048 13.86 26.909t33.89 9.861q22.035 0 33.39-8.023t11.35-21.727a34.663 34.663 0 0 0-1.33-9.861 18.639 18.639 0 0 0-5.18-8.19 34.766 34.766 0 0 0-10.52-6.518 100.65 100.65 0 0 0-17.36-5.181q-25.38-5.343-43.91-10.863t-30.55-13.7a50.915 50.915 0 0 1-17.7-19.889c-3.79-7.8-5.67-15.945-5.67-27.978 0-9.135 1.66-14.173 5-22.195s8.46-13.213 15.36-19.12 15.42-9.7 25.55-13.153a110.284 110.284 0 0 1 35.89-6.067q20.04 0 36.07 5.181c10.68 3.457 19.86 6.585 27.54 12.936a65.828 65.828 0 0 1 17.87 23.064c4.22 9.025 6.56 13.686 7.01 24.6h-44.08c-1.11-11.365-5.23-14.516-12.35-20.089s-17.81-8.357-32.06-8.357c-26.27 0-39.4 6.368-39.4 24.418 0 6.466 2.73 10.981 8.18 15.326s14.19 6.198 26.22 9.092Zm-154.64-47.515-15.58 47.466h84.03c2 10.072 21.81 39.109 48.98 39.109h-144.14l-17.81 57.16h109.86s12.82 41 50.19 47.334c-25.53-.166-218.48.082-218.48.082l71.23-229.926h144.45s-33.06 9.123-43.83 38.775h-68.9Zm-165.8 191.151-66.23-229.926h40.52l48.42 155.769 48.08-155.769h48.08l-75.13 229.926h-43.74Zm-101.51-180.12h.34l27.71 88.246h-56.43Zm-148.26 180.12-34.39-152.376-35.06 152.376h-43.41l-76.13-229.926h49.42l49.75 143.735 30.72-143.735h48.75l33.73 143.735 49.42-143.735h47.41l-75.46 229.926h-44.75ZM864.655 425.239v156.17H821.58v-229.04h49.085L958.818 495.1V352.369h43.412v229.04h-42.744Zm-118.969 156.17h-46.414V391.144h-38s-11.069-32.509-45.2-38.775h190.537v38.775h-60.923v190.265Zm-98.659-188.125c4.226 9.025 6.564 13.686 7.012 24.6h-44.076c-1.116-11.365-5.233-14.516-12.355-20.089s-17.812-8.357-32.055-8.357c-26.27 0-39.4 6.368-39.4 24.418 0 6.466 2.724 10.981 8.181 15.326s14.191 6.2 26.212 9.092q21.366 5.015 37.064 9.359a216.608 216.608 0 0 1 28.717 10.028 72.617 72.617 0 0 1 13.857 7.521 42.2 42.2 0 0 1 11.019 11.2 56.209 56.209 0 0 1 7.179 16.045 83.86 83.86 0 0 1 2.672 22.73q0 16.046-6.679 28.413a63.741 63.741 0 0 1-18.031 20.891 83.025 83.025 0 0 1-26.715 13.039 114.351 114.351 0 0 1-32.389 4.512q-48.42 0-72.793-18.718T478.736 507.8h44.744q.328 17.048 13.857 26.909t33.892 9.861q22.038 0 33.392-8.023t11.353-21.727a34.766 34.766 0 0 0-1.336-9.861 18.674 18.674 0 0 0-5.176-8.19 34.893 34.893 0 0 0-10.518-6.518 100.83 100.83 0 0 0-17.363-5.181q-25.38-5.343-43.91-10.863t-30.553-13.7a50.906 50.906 0 0 1-17.7-19.889c-3.788-7.8-5.677-15.945-5.677-27.978 0-9.135 1.67-14.173 5.009-22.195s8.457-13.213 15.36-19.12 15.412-9.7 25.544-13.153a110.284 110.284 0 0 1 35.9-6.067q20.034 0 36.062 5.181c10.686 3.457 19.868 6.585 27.548 12.936a65.823 65.823 0 0 1 17.863 23.062ZM394.039 582.01c-21.595 0-36.174-5.74-48.194-17.214s-18.032-28.69-18.032-51.644V352.258h42.073v158.554q0 17.048 6.011 25.237t20.368 8.189q16.028 0 21.2-7.855t5.176-26.24V352.369h46.414v162.12q0 30.42-18.365 48.97c-12.242 12.367-32.609 18.551-56.651 18.551Zm-153.6 0q-32.392 0-50.421-17.214t-18.031-51.644v-22.731h42.073v20.391q0 17.048 6.01 25.237t20.369 8.189q16.027 0 21.2-7.855t5.176-26.24V352.369h46.413v162.12q0 30.42-18.365 48.97T240.44 582.01Zm566.118-.6h-46.413V405.852h46.414v175.557Zm588.412-53.264 14.02 53.767H1297.47l15.69-53.767h81.81Z" transform="translate(-172 -352)" style="fill:#fff;fill-rule:evenodd"/></svg>